<?xml version="1.0" encoding="UTF-8" standalone="no"?>
<!-- Created with Inkscape (http://www.inkscape.org/) -->

<svg
   width="48"
   height="48"
   viewBox="0 0 12.7 12.7"
   version="1.1"
   id="svg1"
   xml:space="preserve"
   xmlns="http://www.w3.org/2000/svg"
   xmlns:svg="http://www.w3.org/2000/svg"><defs
     id="defs1" /><g
     id="layer1"><path
       id="path7"
       style="fill:#ec6060;fill-opacity:1;stroke:none;stroke-width:0.2;stroke-linecap:round;stroke-linejoin:round;stroke-dasharray:none;stroke-opacity:1;paint-order:markers stroke fill"
       d="M 6.3443158,6.35 A 6.3499999,6.3499999 0 0 0 1.8655194,8.2212036 L 6.3443158,12.7 10.834481,8.2098348 A 6.3499999,6.3499999 0 0 0 6.3443158,6.35 Z" /><path
       id="path8"
       style="fill:#7ebcf6;fill-opacity:1;stroke:none;stroke-width:0.2;stroke-linecap:round;stroke-linejoin:round;stroke-dasharray:none;stroke-opacity:1;paint-order:markers stroke fill"
       d="M 6.3443158,0 1.8655194,4.478796 A 6.3499999,6.3499999 0 0 0 6.3443158,6.35 6.3499999,6.3499999 0 0 0 10.823112,4.478796 Z" /><path
       id="path9"
       style="fill:#b548f1;fill-opacity:1;stroke:none;stroke-width:0.2;stroke-linecap:round;stroke-linejoin:round;stroke-dasharray:none;stroke-opacity:1;paint-order:markers stroke fill"
       d="M 4.490165,1.8598348 -2.0043258e-7,6.35 4.478796,10.828796 A 6.3499999,6.3499999 0 0 0 6.35,6.35 6.3499999,6.3499999 0 0 0 4.490165,1.8598348 Z" /><path
       id="path2"
       style="fill:#f1e348;fill-opacity:1;stroke:none;stroke-width:9.60001;stroke-linecap:round;stroke-linejoin:round;paint-order:markers stroke fill"
       d="M 8.2181031,1.8686198 A 6.3499999,6.3499999 0 0 0 6.3500001,6.2704183 V 6.4295817 A 6.3499999,6.3499999 0 0 0 8.2181031,10.83138 L 12.7,6.35 Z" /><g
       id="path6-7"
       style="fill:#7e88f6;fill-opacity:1"
       transform="translate(-0.00568422)"><path
         style="color:#000000;fill:#7e88f6;fill-opacity:1;stroke-linecap:round;stroke-linejoin:round;-inkscape-stroke:none;paint-order:markers stroke fill"
         d="M 3.1015625,5.2890625 A 0.26773126,0.26773126 0 0 0 2.8320313,5.5566406 l -0.00586,1.578125 a 0.26773126,0.26773126 0 0 0 0.265625,0.2695313 l 1.5800781,0.00586 A 0.26773126,0.26773126 0 0 0 4.8613281,7.3339844 L 5.6542969,6.546875 A 0.26773126,0.26773126 0 0 0 5.65625,6.1679687 L 4.8691406,5.375 A 0.26773126,0.26773126 0 0 0 4.6796875,5.2949219 Z M 3.3652344,5.8261719 4.5664062,5.8300781 5.0859375,6.3554687 4.5625,6.875 3.3613281,6.8691406 Z"
         id="path10-3" /><path
         style="color:#000000;fill:#7e88f6;fill-opacity:1;stroke-linecap:round;stroke-linejoin:round;-inkscape-stroke:none;paint-order:markers stroke fill"
         d="m 5.465605,6.356598 -0.7862733,-0.7930057 -1.5795555,-0.00674 -0.00671,1.5795552 1.579556,0.00674 z"
         id="path11-6" /></g><g
       id="rect2-1"
       style="fill:#f1c448;fill-opacity:1"
       transform="translate(-0.00568422)"><path
         style="color:#000000;fill:#f1c448;fill-opacity:1;stroke-linecap:round;stroke-linejoin:round;-inkscape-stroke:none;paint-order:markers stroke fill"
         d="M 5.5605469,2.828125 A 0.26773126,0.26773126 0 0 0 5.2929687,3.0957031 v 1.5800781 a 0.26773126,0.26773126 0 0 0 0.078125,0.1894532 l 0.7890625,0.7890625 a 0.26773126,0.26773126 0 0 0 0.3789063,0 L 7.328125,4.8652344 A 0.26773126,0.26773126 0 0 0 7.4082031,4.6757812 V 3.0957031 A 0.26773126,0.26773126 0 0 0 7.140625,2.828125 Z M 5.828125,3.3632813 H 6.8730469 V 4.5644531 L 6.3496094,5.0859375 5.828125,4.5644531 Z"
         id="path12-2" /><path
         style="color:#000000;fill:#f1c448;fill-opacity:1;stroke-linecap:round;stroke-linejoin:round;-inkscape-stroke:none;paint-order:markers stroke fill"
         d="M 6.3501381,5.4656049 7.1397847,4.6759582 V 3.096389 H 5.5602151 v 1.5795692 z"
         id="path13-9" /></g><path
       id="path14-1"
       style="color:#000000;fill:#e448f1;fill-opacity:1;stroke-linecap:round;stroke-linejoin:round;-inkscape-stroke:none;paint-order:markers stroke fill"
       d="M 6.3096924,6.9696004 A 0.26773126,0.26773126 0 0 0 6.1624146,7.045048 L 5.3691813,7.830013 a 0.26773126,0.26773126 0 0 0 -0.080099,0.1896525 l -0.00568,1.5797486 a 0.26773126,0.26773126 0 0 0 0.267684,0.2676839 l 1.5781982,0.00775 A 0.26773126,0.26773126 0 0 0 7.3985148,9.6071655 L 7.404716,8.029484 A 0.26773126,0.26773126 0 0 0 7.3282349,7.8377645 L 6.5412028,7.045048 A 0.26773126,0.26773126 0 0 0 6.3096924,6.9696004 Z" /><g
       id="path4-4"
       style="fill:#ecb960;fill-opacity:1"
       transform="translate(-0.00568422)"><path
         style="color:#000000;fill:#ecb960;fill-opacity:1;stroke-linecap:round;stroke-linejoin:round;-inkscape-stroke:none;paint-order:markers stroke fill"
         d="M 8.0234375,5.2929687 A 0.26773126,0.26773126 0 0 0 7.8339844,5.3710937 L 7.0449219,6.1601562 a 0.26773126,0.26773126 0 0 0 0,0.3789063 L 7.8339844,7.328125 A 0.26773126,0.26773126 0 0 0 8.0234375,7.408203 H 9.6035156 A 0.26773126,0.26773126 0 0 0 9.8710938,7.140625 V 5.5605469 A 0.26773126,0.26773126 0 0 0 9.6035156,5.2929687 Z M 8.1347656,5.828125 H 9.3359375 V 6.8730469 H 8.1347656 L 7.6132812,6.3496094 Z"
         id="path16-7" /><path
         style="color:#000000;fill:#ecb960;fill-opacity:1;stroke-linecap:round;stroke-linejoin:round;-inkscape-stroke:none;paint-order:markers stroke fill"
         d="M 7.2343949,6.3501381 8.0240416,7.1397847 H 9.6036113 V 5.5602151 H 8.0240416 Z"
         id="path17-8" /></g><path
       id="path18"
       style="color:#000000;fill:#c2f148;fill-opacity:1;stroke-linecap:round;stroke-linejoin:round;-inkscape-stroke:none;paint-order:markers stroke fill"
       d="M 7.3535563,2.9424561 A 6.3499999,6.3499999 0 0 0 6.3882406,5.729366 0.26773126,0.26773126 0 0 0 6.5334513,5.6544352 L 7.3225505,4.8653361 A 0.26773126,0.26773126 0 0 0 7.4026489,4.6756836 V 3.0959351 a 0.26773126,0.26773126 0 0 0 -0.049093,-0.153479 z" /><path
       id="path20"
       style="color:#000000;fill:#f15a48;fill-opacity:1;stroke-linecap:round;stroke-linejoin:round;-inkscape-stroke:none;paint-order:markers stroke fill"
       d="M 5.3495443,2.9279867 A 0.26773126,0.26773126 0 0 0 5.2875326,3.0959351 V 4.6756836 A 0.26773126,0.26773126 0 0 0 5.365564,4.8653361 L 6.1546631,5.6544352 A 0.26773126,0.26773126 0 0 0 6.3195109,5.7298828 6.3499999,6.3499999 0 0 0 5.3495443,2.9279867 Z" /><path
       id="path22"
       style="color:#000000;fill:#f1b648;fill-opacity:1;stroke-linecap:round;stroke-linejoin:round;-inkscape-stroke:none;paint-order:markers stroke fill"
       d="M 6.3877238,6.9696004 A 6.3499999,6.3499999 0 0 0 7.3514893,9.7554769 0.26773126,0.26773126 0 0 0 7.3985148,9.6071655 L 7.404716,8.029484 A 0.26773126,0.26773126 0 0 0 7.3282349,7.8377645 L 6.5412028,7.045048 a 0.26773126,0.26773126 0 0 0 -0.153479,-0.075448 z" /><path
       id="path23"
       style="color:#000000;fill:#7848f1;fill-opacity:1;stroke-linecap:round;stroke-linejoin:round;-inkscape-stroke:none;paint-order:markers stroke fill"
       d="M 6.3096924,6.9696004 A 0.26773126,0.26773126 0 0 0 6.1624146,7.045048 L 5.3691813,7.830013 a 0.26773126,0.26773126 0 0 0 -0.080099,0.1896525 l -0.00568,1.5797486 a 0.26773126,0.26773126 0 0 0 0.055294,0.1612304 6.3499999,6.3499999 0 0 0 0.9741008,-2.7910441 0.26773126,0.26773126 0 0 0 -0.0031,0 z" /></g></svg>
